:FULLY-SPECIFIED
:FORCE-ALL-JOINTS-BE-3DOF
:DEGREES
162
root 8.22468 16.6205 -13.9857 8.15822 9.6251 -0.792222
lfemur -6.4444 8.10643 -14.1176
ltibia 54.781 0 0
lfoot 2.23553 13.1099 0
ltoes -10.8558 0 0
rfemur -29.1592 1.28047 23.6688
rtibia 30.8294 0 0
rfoot -12.5146 0.324092 0
rtoes -14.8522 0 0
lowerback -4.99747 -1.96658 -0.662689
upperback -1.96581 -2.63053 3.59331
thorax 0.977429 -1.30527 3.92051
lowerneck -18.5939 -7.05094 -15.0961
upperneck 14.639 -8.50931 15.0537
head 8.98672 -3.42957 6.53269
lclavicle 3.3592e-14 -9.19931e-15 0
lhumerus -44.5905 -11.3763 96.515
lradius 25.1445 0 0
lwrist 1.78669 0 0
lhand -0.646051 -17.9983 0
lfingers 7.12502 0 0
lthumb 24.9713 10.3881 0
rclavicle 3.3592e-14 -9.19931e-15 0
rhumerus -45.1104 8.81569 -81.5314
rradius 33.4951 0 0
rwrist -18.2753 0 0
rhand -28.1859 -28.5923 0
rfingers 7.12502 0 0
rthumb -1.56548 -58.5659 0
163
root 8.22926 16.6107 -14.0339 8.16814 9.6865 -0.720423
lfemur -5.87019 8.07046 -14.0811
ltibia 54.2525 0 0
lfoot 2.51013 13.1915 0
ltoes -10.5354 0 0
rfemur -29.4704 1.23328 23.5451
rtibia 31.0438 0 0
rfoot -12.4074 0.262309 0
rtoes -14.946 0 0
lowerback -5.02286 -2.03316 -0.732397
upperback -1.99019 -2.71539 3.58917
thorax 0.974717 -1.34756 3.94971
lowerneck -18.5996 -7.02721 -15.1065
upperneck 14.6736 -8.47255 15.0358
head 8.99298 -3.41434 6.53462
lclavicle 3.60297e-14 -7.95139e-15 0
lhumerus -44.4565 -11.1407 96.4025
lradius 24.8871 0 0
lwrist 1.35588 0 0
lhand -0.454373 -17.8336 0
lfingers 7.12502 0 0
lthumb 25.1551 10.529 0
rclavicle 3.60297e-14 -7.95139e-15 0
rhumerus -45.2086 8.65175 -81.5253
rradius 33.2742 0 0
rwrist -18.1265 0 0
rhand -28.0664 -28.7822 0
rfingers 7.12502 0 0
rthumb -1.45006 -58.757 0
164
root 8.21474 16.6424 -13.8776 8.17185 9.49498 -0.886136
lfemur -7.76863 8.14686 -14.3184
ltibia 55.9049 0 0
lfoot 1.41965 13.2 0
ltoes -10.2659 0 0
rfemur -28.4819 1.32943 23.8819
rtibia 30.3136 0 0
rfoot -12.7539 0.476301 0
rtoes -14.9937 0 0
lowerback -4.94703 -1.82161 -0.576649
upperback -1.95051 -2.44037 3.59231
thorax 0.949367 -1.21003 3.8836
lowerneck -18.4545 -7.08848 -15.1155
upperneck 14.4995 -8.57695 15.1285
head 8.93099 -3.46149 6.55028
lclavicle 3.4067e-14 -1.0103e-14 0
lhumerus -45.0374 -11.9875 96.8928
lradius 25.8882 0 0
lwrist 2.90124 0 0
lhand -0.850122 -18.2436 0
lfingers 7.12502 0 0
lthumb 24.7752 10.1642 0
rclavicle 3.4067e-14 -1.0103e-14 0
rhumerus -44.9082 9.1977 -81.5251
rradius 33.9823 0 0
rwrist -18.4472 0 0
rhand -28.2264 -28.396 0
rfingers 7.12502 0 0
rthumb -1.60462 -58.369 0
165
root 8.19916 16.6766 -13.6817 8.12767 9.19748 -1.11107
lfemur -10.0446 8.24912 -14.6252
ltibia 57.577 0 0
lfoot 0.052043 12.7472 0
ltoes -10.448 0 0
rfemur -27.2333 1.51184 24.3078
rtibia 29.4777 0 0
rfoot -13.1964 0.723955 0
rtoes -14.8746 0 0
lowerback -4.85374 -1.53442 -0.34914
upperback -1.87321 -2.06805 3.5836
thorax 0.944318 -1.02448 3.76912
lowerneck -18.2902 -7.15923 -15.0903
upperneck 14.3264 -8.70539 15.2132
head 8.86869 -3.51992 6.5539
lclavicle 2.75906e-14 -1.40769e-14 0
lhumerus -45.6544 -12.7721 97.3078
lradius 27.0566 0 0
lwrist 4.74343 0 0
lhand -1.73614 -19.0036 0
lfingers 7.12502 0 0
lthumb 23.9247 9.50603 0
rclavicle 2.75906e-14 -1.40769e-14 0
rhumerus -44.5168 9.86175 -81.5058
rradius 34.9216 0 0
rwrist -18.8944 0 0
rhand -28.6017 -27.5638 0
rfingers 7.12502 0 0
rthumb -1.96704 -57.5328 0
166
root 8.18486 16.7086 -13.4863 8.05806 8.8726 -1.34774
lfemur -12.263 8.35721 -14.9308
ltibia 59.069 0 0
lfoot -1.31657 12.0631 0
ltoes -10.9753 0 0
rfemur -25.9732 1.72438 24.7388
rtibia 28.6668 0 0
rfoot -13.6376 0.96258 0
rtoes -14.6521 0 0
lowerback -4.76284 -1.23725 -0.102194
upperback -1.77553 -1.68374 3.56881
thorax 0.960175 -0.833366 3.6372
lowerneck -18.1571 -7.22901 -15.0383
upperneck 14.1794 -8.83401 15.2778
head 8.81879 -3.57757 6.54606
lclavicle 1.90041e-14 -1.87354e-14 0
lhumerus -46.2118 -13.4424 97.6329
lradius 28.1876 0 0
lwrist 6.54103 0 0
lhand -2.78072 -19.8648 0
lfingers 7.12502 0 0
lthumb 22.9222 8.76647 0
rclavicle 1.90041e-14 -1.87354e-14 0
rhumerus -44.1111 10.524 -81.4832
rradius 35.8866 0 0
rwrist -19.367 0 0
rhand -29.0644 -26.5512 0
rfingers 7.12502 0 0
rthumb -2.41385 -56.5153 0
167
root 8.17418 16.7339 -13.3313 7.98547 8.59895 -1.54865
lfemur -13.9885 8.45109 -15.1647
ltibia 60.1811 0 0
lfoot -2.41004 11.3776 0
ltoes -11.7415 0 0
rfemur -24.9501 1.91094 25.0906
rtibia 28.012 0 0
rfoot -13.9804 1.14949 0
rtoes -14.3894 0 0
lowerback -4.6942 -0.995786 0.111865
upperback -1.67469 -1.37276 3.55371
thorax 0.997542 -0.679137 3.51876
lowerneck -18.1054 -7.28737 -14.9669
upperneck 14.0836 -8.93895 15.3104
head 8.79402 -3.62236 6.52738
lclavicle 1.07114e-14 -2.29412e-14 0
lhumerus -46.6136 -13.9461 97.8533
lradius 29.0766 0 0
lwrist 7.95262 0 0
lhand -3.65215 -20.5785 0
lfingers 7.12502 0 0
lthumb 22.0861 8.15743 0
rclavicle 1.07114e-14 -2.29412e-14 0
rhumerus -43.7674 11.0645 -81.4731
rradius 36.6719 0 0
rwrist -19.7637 0 0
rhand -29.4866 -25.6239 0
rfingers 7.12502 0 0
rthumb -2.82159 -55.5837 0
168
root 8.16946 16.7477 -13.2566 7.93238 8.45515 -1.66631
lfemur -14.7862 8.51074 -15.2562
ltibia 60.7134 0 0
lfoot -2.95224 10.9207 0
ltoes -12.6402 0 0
rfemur -24.4124 2.0154 25.2792
rtibia 27.6442 0 0
rfoot -14.1277 1.24198 0
rtoes -14.1499 0 0
lowerback -4.6677 -0.875691 0.240714
upperback -1.58794 -1.22044 3.54407
thorax 1.05703 -0.604239 3.44474
lowerneck -18.1852 -7.32385 -14.8838
upperneck 14.0643 -8.99634 15.299
head 8.8071 -3.64221 6.49845
lclavicle 5.116e-15 -2.55567e-14 0
lhumerus -46.7639 -14.2311 97.9543
lradius 29.5189 0 0
lwrist 8.63677 0 0
lhand -4.01873 -20.8958 0
lfingers 7.12502 0 0
lthumb 21.7349 7.89086 0
rclavicle 5.116e-15 -2.55567e-14 0
rhumerus -43.5622 11.3634 -81.4913
rradius 37.0719 0 0
rwrist -19.9833 0 0
rhand -29.7405 -25.0475 0
rfingers 7.12502 0 0
rthumb -3.06678 -55.0048 0
